<svg width="690" height="856" viewBox="0 0 690 856" fill="none" xmlns="http://www.w3.org/2000/svg">
<path d="M0 0H690V856H0V0Z" fill="#30C81F"/>
<path d="M116.278 693.606V718.542H149.868V736.878H116.278V762.328H160.136V781.396H91.3413V674.537H160.136V693.606H116.278Z" fill="#063816"/>
<path d="M245.3 753.746C245.887 753.746 246.474 753.869 247.061 754.113C247.647 754.309 248.21 754.675 248.747 755.213L258.575 765.555C254.273 771.177 248.87 775.431 242.367 778.316C235.913 781.152 228.261 782.57 219.411 782.57C211.294 782.57 204.009 781.201 197.555 778.463C191.149 775.676 185.698 771.862 181.199 767.021C176.75 762.132 173.327 756.362 170.931 749.713C168.535 743.014 167.338 735.753 167.338 727.93C167.338 719.96 168.633 712.65 171.225 706.001C173.816 699.302 177.459 693.532 182.153 688.692C186.847 683.851 192.47 680.086 199.021 677.397C205.573 674.708 212.785 673.363 220.657 673.363C224.667 673.363 228.432 673.73 231.952 674.464C235.521 675.148 238.846 676.126 241.927 677.397C245.007 678.62 247.843 680.111 250.434 681.871C253.026 683.631 255.324 685.538 257.328 687.592L248.967 698.813C248.43 699.498 247.794 700.133 247.061 700.72C246.327 701.258 245.3 701.527 243.98 701.527C243.1 701.527 242.269 701.331 241.487 700.94C240.704 700.549 239.873 700.084 238.993 699.547C238.113 698.96 237.135 698.349 236.059 697.713C235.032 697.028 233.786 696.417 232.319 695.879C230.901 695.293 229.214 694.804 227.258 694.413C225.351 694.021 223.102 693.826 220.511 693.826C216.404 693.826 212.639 694.584 209.216 696.099C205.842 697.615 202.909 699.84 200.415 702.774C197.97 705.658 196.063 709.228 194.694 713.482C193.374 717.687 192.714 722.503 192.714 727.93C192.714 733.406 193.447 738.271 194.914 742.525C196.43 746.779 198.459 750.373 201.002 753.306C203.593 756.191 206.6 758.391 210.023 759.907C213.445 761.423 217.113 762.181 221.024 762.181C223.273 762.181 225.327 762.083 227.185 761.887C229.043 761.643 230.779 761.276 232.392 760.787C234.006 760.249 235.521 759.565 236.939 758.734C238.357 757.854 239.8 756.754 241.267 755.433C241.853 754.944 242.489 754.553 243.173 754.26C243.858 753.918 244.567 753.746 245.3 753.746Z" fill="#063816"/>
<path d="M371.841 727.93C371.841 735.655 370.496 742.843 367.807 749.493C365.167 756.142 361.426 761.936 356.586 766.875C351.745 771.764 345.902 775.602 339.057 778.389C332.261 781.176 324.706 782.57 316.394 782.57C308.082 782.57 300.503 781.176 293.658 778.389C286.813 775.602 280.945 771.764 276.056 766.875C271.215 761.936 267.451 756.142 264.761 749.493C262.121 742.843 260.801 735.655 260.801 727.93C260.801 720.205 262.121 713.017 264.761 706.367C267.451 699.718 271.215 693.948 276.056 689.059C280.945 684.169 286.813 680.331 293.658 677.544C300.503 674.757 308.082 673.363 316.394 673.363C324.706 673.363 332.261 674.781 339.057 677.617C345.902 680.404 351.745 684.242 356.586 689.132C361.426 694.021 365.167 699.791 367.807 706.441C370.496 713.09 371.841 720.254 371.841 727.93ZM346.465 727.93C346.465 722.649 345.78 717.907 344.411 713.702C343.042 709.448 341.062 705.854 338.47 702.92C335.928 699.987 332.798 697.737 329.082 696.173C325.366 694.608 321.137 693.826 316.394 693.826C311.603 693.826 307.324 694.608 303.559 696.173C299.843 697.737 296.69 699.987 294.098 702.92C291.556 705.854 289.6 709.448 288.231 713.702C286.862 717.907 286.177 722.649 286.177 727.93C286.177 733.26 286.862 738.051 288.231 742.305C289.6 746.51 291.556 750.079 294.098 753.013C296.69 755.947 299.843 758.196 303.559 759.76C307.324 761.276 311.603 762.034 316.394 762.034C321.137 762.034 325.366 761.276 329.082 759.76C332.798 758.196 335.928 755.947 338.47 753.013C341.062 750.079 343.042 746.51 344.411 742.305C345.78 738.051 346.465 733.26 346.465 727.93Z" fill="#063816"/>
<path d="M437.769 726.023H475.76V771.129C470.284 775.138 464.441 778.047 458.231 779.856C452.07 781.665 445.616 782.57 438.869 782.57C430.068 782.57 422.049 781.201 414.813 778.463C407.625 775.676 401.464 771.862 396.33 767.021C391.196 762.132 387.236 756.362 384.449 749.713C381.662 743.014 380.268 735.753 380.268 727.93C380.268 719.96 381.589 712.65 384.229 706.001C386.869 699.302 390.634 693.532 395.524 688.692C400.462 683.851 406.403 680.086 413.346 677.397C420.338 674.708 428.136 673.363 436.742 673.363C441.191 673.363 445.372 673.73 449.283 674.464C453.195 675.197 456.789 676.199 460.065 677.471C463.39 678.742 466.421 680.258 469.159 682.018C471.897 683.778 474.342 685.685 476.493 687.738L469.306 698.666C468.181 700.378 466.714 701.429 464.905 701.82C463.145 702.211 461.238 701.771 459.185 700.5C457.229 699.327 455.371 698.324 453.611 697.493C451.899 696.613 450.139 695.904 448.33 695.366C446.521 694.828 444.614 694.437 442.609 694.193C440.605 693.948 438.355 693.826 435.862 693.826C431.217 693.826 427.036 694.657 423.32 696.319C419.604 697.933 416.426 700.231 413.786 703.214C411.194 706.196 409.19 709.79 407.772 713.995C406.354 718.151 405.645 722.796 405.645 727.93C405.645 733.602 406.427 738.638 407.992 743.039C409.556 747.439 411.757 751.155 414.593 754.187C417.477 757.218 420.9 759.541 424.861 761.154C428.87 762.719 433.295 763.501 438.135 763.501C441.118 763.501 443.807 763.208 446.203 762.621C448.648 762.034 451.019 761.252 453.317 760.274V744.065H442.756C441.191 744.065 439.969 743.65 439.089 742.818C438.209 741.987 437.769 740.936 437.769 739.665V726.023Z" fill="#063816"/>
<path d="M517.368 781.396H492.432V674.537H517.368V781.396Z" fill="#063816"/>
<path d="M597.025 696.246C596.291 697.42 595.509 698.3 594.678 698.886C593.895 699.473 592.868 699.767 591.597 699.767C590.473 699.767 589.25 699.424 587.93 698.74C586.659 698.006 585.192 697.2 583.53 696.319C581.916 695.439 580.058 694.657 577.956 693.973C575.853 693.239 573.457 692.872 570.768 692.872C566.123 692.872 562.651 693.875 560.353 695.879C558.104 697.835 556.98 700.5 556.98 703.874C556.98 706.025 557.664 707.81 559.033 709.228C560.402 710.646 562.187 711.868 564.387 712.895C566.636 713.922 569.179 714.875 572.015 715.755C574.9 716.586 577.833 717.54 580.816 718.616C583.799 719.642 586.708 720.865 589.544 722.283C592.428 723.701 594.971 725.51 597.171 727.71C599.42 729.91 601.229 732.599 602.599 735.778C603.968 738.907 604.652 742.696 604.652 747.146C604.652 752.084 603.796 756.705 602.085 761.007C600.374 765.31 597.88 769.075 594.604 772.302C591.377 775.48 587.368 777.998 582.576 779.856C577.833 781.665 572.43 782.57 566.367 782.57C563.043 782.57 559.644 782.228 556.173 781.543C552.75 780.859 549.425 779.905 546.198 778.683C542.971 777.412 539.94 775.92 537.104 774.209C534.268 772.498 531.799 770.591 529.696 768.488L537.031 756.9C537.617 756.069 538.375 755.384 539.304 754.847C540.282 754.26 541.333 753.966 542.458 753.966C543.925 753.966 545.392 754.431 546.858 755.36C548.374 756.289 550.061 757.316 551.919 758.44C553.826 759.565 556.002 760.592 558.447 761.521C560.891 762.45 563.776 762.914 567.101 762.914C571.599 762.914 575.095 761.936 577.589 759.981C580.083 757.976 581.329 754.822 581.329 750.519C581.329 748.026 580.645 745.997 579.276 744.432C577.907 742.867 576.098 741.572 573.848 740.545C571.648 739.518 569.13 738.613 566.294 737.831C563.458 737.049 560.549 736.193 557.566 735.264C554.584 734.286 551.675 733.113 548.839 731.744C546.003 730.326 543.46 728.492 541.211 726.243C539.011 723.945 537.226 721.109 535.857 717.735C534.488 714.313 533.803 710.108 533.803 705.121C533.803 701.111 534.61 697.2 536.224 693.386C537.837 689.572 540.209 686.174 543.338 683.191C546.467 680.209 550.306 677.837 554.853 676.077C559.4 674.268 564.607 673.363 570.475 673.363C573.751 673.363 576.929 673.632 580.009 674.17C583.138 674.659 586.097 675.417 588.884 676.444C591.671 677.422 594.262 678.62 596.658 680.037C599.103 681.407 601.278 682.971 603.185 684.731L597.025 696.246Z" fill="#063816"/>
<path d="M80 517.848C80 484.202 107.275 456.927 140.921 456.927H548.079C581.725 456.927 609 484.202 609 517.848V563.539C609 597.185 581.725 624.461 548.079 624.461H140.921C107.275 624.461 80 597.185 80 563.539V517.848Z" fill="#063816"/>
<path d="M80 311.731C80 283.693 102.73 260.964 130.768 260.964H351.585C363.654 260.964 373.438 270.747 373.438 282.816C373.438 363.273 308.214 428.497 227.756 428.497H130.768C102.73 428.497 80 405.768 80 377.729V311.731Z" fill="#063816"/>
<path d="M80 181.766C80 209.804 102.73 232.534 130.768 232.534H351.585C363.654 232.534 373.438 222.75 373.438 210.681C373.438 130.224 308.214 65 227.756 65H130.768C102.73 65 80 87.7295 80 115.768V181.766Z" fill="#063816"/>
<path d="M609 377.729C609 405.768 586.27 428.497 558.232 428.497H395.29C383.221 428.497 373.438 418.714 373.438 406.645C373.438 326.187 438.661 260.964 519.119 260.964H561.888C587.907 260.964 609 282.057 609 308.076V377.729Z" fill="#063816"/>
<path d="M609 115.768C609 87.7295 586.27 65 558.232 65H395.29C383.221 65 373.438 74.7836 373.438 86.8522C373.438 167.31 438.661 232.534 519.119 232.534H561.888C587.907 232.534 609 211.441 609 185.421V115.768Z" fill="#063816"/>
</svg>
